<mxfile host="app.diagrams.net" agent="Mozilla/5.0 (Macintosh; Intel Mac OS X 10_15_7) AppleWebKit/605.1.15 (KHTML, like Gecko) Version/18.4 Safari/605.1.15" version="28.2.3">
  <diagram name="Trang-1" id="jLtpuougcfj07sBFjRzT">
    <mxGraphModel dx="1577" dy="1087" grid="0" gridSize="10" guides="1" tooltips="1" connect="1" arrows="1" fold="1" page="0" pageScale="1" pageWidth="827" pageHeight="1169" math="0" shadow="0">
      <root>
        <mxCell id="0" />
        <mxCell id="1" parent="0" />
        <mxCell id="0HQXP3GsMQEY6zsB-aqq-1" value="&lt;div&gt;&lt;b&gt;&lt;br&gt;&lt;/b&gt;&lt;/div&gt;&lt;div&gt;&lt;b&gt;&lt;br&gt;&lt;/b&gt;&lt;/div&gt;&lt;div&gt;&lt;b&gt;&lt;br&gt;&lt;/b&gt;&lt;/div&gt;&lt;b&gt;client&lt;/b&gt;" style="shape=actor;whiteSpace=wrap;html=1;" vertex="1" parent="1">
          <mxGeometry x="8" y="133" width="40" height="60" as="geometry" />
        </mxCell>
        <mxCell id="0HQXP3GsMQEY6zsB-aqq-2" value="&lt;div&gt;&lt;b&gt;&lt;br&gt;&lt;/b&gt;&lt;/div&gt;&lt;div&gt;&lt;b&gt;&lt;br&gt;&lt;/b&gt;&lt;/div&gt;&lt;div&gt;&lt;b&gt;&lt;br&gt;&lt;/b&gt;&lt;/div&gt;&lt;b&gt;client&lt;/b&gt;" style="shape=actor;whiteSpace=wrap;html=1;" vertex="1" parent="1">
          <mxGeometry x="8" y="227" width="40" height="60" as="geometry" />
        </mxCell>
        <mxCell id="0HQXP3GsMQEY6zsB-aqq-3" value="&lt;div&gt;&lt;b&gt;&lt;br&gt;&lt;/b&gt;&lt;/div&gt;&lt;div&gt;&lt;b&gt;&lt;br&gt;&lt;/b&gt;&lt;/div&gt;&lt;div&gt;&lt;b&gt;&lt;br&gt;&lt;/b&gt;&lt;/div&gt;&lt;b&gt;client&lt;/b&gt;" style="shape=actor;whiteSpace=wrap;html=1;" vertex="1" parent="1">
          <mxGeometry x="8" y="321" width="40" height="60" as="geometry" />
        </mxCell>
        <mxCell id="0HQXP3GsMQEY6zsB-aqq-4" value="&lt;b&gt;Load&lt;/b&gt;&lt;div&gt;&lt;b&gt;Balander&lt;/b&gt;&lt;/div&gt;" style="html=1;whiteSpace=wrap;aspect=fixed;shape=isoRectangle;" vertex="1" parent="1">
          <mxGeometry x="171" y="245" width="91.67" height="55" as="geometry" />
        </mxCell>
        <mxCell id="0HQXP3GsMQEY6zsB-aqq-5" value="" style="endArrow=classic;html=1;rounded=0;exitX=1;exitY=0.75;exitDx=0;exitDy=0;" edge="1" parent="1" source="0HQXP3GsMQEY6zsB-aqq-2">
          <mxGeometry width="50" height="50" relative="1" as="geometry">
            <mxPoint x="388" y="363" as="sourcePoint" />
            <mxPoint x="175" y="272" as="targetPoint" />
          </mxGeometry>
        </mxCell>
        <mxCell id="0HQXP3GsMQEY6zsB-aqq-6" value="" style="endArrow=classic;html=1;rounded=0;exitX=1;exitY=0.75;exitDx=0;exitDy=0;entryX=0.513;entryY=0.036;entryDx=0;entryDy=0;entryPerimeter=0;edgeStyle=orthogonalEdgeStyle;" edge="1" parent="1" source="0HQXP3GsMQEY6zsB-aqq-1" target="0HQXP3GsMQEY6zsB-aqq-4">
          <mxGeometry width="50" height="50" relative="1" as="geometry">
            <mxPoint x="388" y="363" as="sourcePoint" />
            <mxPoint x="438" y="313" as="targetPoint" />
          </mxGeometry>
        </mxCell>
        <mxCell id="0HQXP3GsMQEY6zsB-aqq-7" value="" style="endArrow=classic;html=1;rounded=0;exitX=1;exitY=0.75;exitDx=0;exitDy=0;entryX=0.502;entryY=1.036;entryDx=0;entryDy=0;entryPerimeter=0;edgeStyle=orthogonalEdgeStyle;" edge="1" parent="1" source="0HQXP3GsMQEY6zsB-aqq-3" target="0HQXP3GsMQEY6zsB-aqq-4">
          <mxGeometry width="50" height="50" relative="1" as="geometry">
            <mxPoint x="58" y="188" as="sourcePoint" />
            <mxPoint x="228" y="257" as="targetPoint" />
          </mxGeometry>
        </mxCell>
        <mxCell id="0HQXP3GsMQEY6zsB-aqq-10" value="" style="swimlane;startSize=0;dashed=1;" vertex="1" parent="1">
          <mxGeometry x="304" y="7" width="259" height="501" as="geometry">
            <mxRectangle x="277" y="47" width="50" height="44" as="alternateBounds" />
          </mxGeometry>
        </mxCell>
        <mxCell id="0HQXP3GsMQEY6zsB-aqq-13" value="" style="rounded=0;whiteSpace=wrap;html=1;" vertex="1" parent="0HQXP3GsMQEY6zsB-aqq-10">
          <mxGeometry x="70.5" y="72.5" width="144" height="356" as="geometry" />
        </mxCell>
        <mxCell id="0HQXP3GsMQEY6zsB-aqq-14" value="" style="rounded=0;whiteSpace=wrap;html=1;" vertex="1" parent="0HQXP3GsMQEY6zsB-aqq-10">
          <mxGeometry x="55" y="63" width="144" height="356" as="geometry" />
        </mxCell>
        <mxCell id="0HQXP3GsMQEY6zsB-aqq-15" value="&lt;font style=&quot;font-size: 18px;&quot;&gt;&lt;b&gt;UI&lt;/b&gt;&lt;/font&gt;" style="text;html=1;align=center;verticalAlign=middle;whiteSpace=wrap;rounded=0;" vertex="1" parent="0HQXP3GsMQEY6zsB-aqq-10">
          <mxGeometry x="97" y="73" width="60" height="30" as="geometry" />
        </mxCell>
        <mxCell id="0HQXP3GsMQEY6zsB-aqq-16" value="&lt;font style=&quot;font-size: 18px;&quot;&gt;&lt;b&gt;SPA&lt;/b&gt;&lt;/font&gt;" style="text;html=1;align=center;verticalAlign=middle;whiteSpace=wrap;rounded=0;" vertex="1" parent="0HQXP3GsMQEY6zsB-aqq-10">
          <mxGeometry x="97" y="250" width="60" height="30" as="geometry" />
        </mxCell>
        <mxCell id="0HQXP3GsMQEY6zsB-aqq-18" value="&lt;font style=&quot;font-size: 18px;&quot;&gt;&lt;b&gt;Front-end&lt;/b&gt;&lt;/font&gt;" style="text;html=1;align=center;verticalAlign=middle;whiteSpace=wrap;rounded=0;" vertex="1" parent="0HQXP3GsMQEY6zsB-aqq-10">
          <mxGeometry x="74.5" y="4" width="105" height="30" as="geometry" />
        </mxCell>
        <mxCell id="0HQXP3GsMQEY6zsB-aqq-53" value="" style="endArrow=classic;html=1;rounded=0;exitX=0.985;exitY=0.479;exitDx=0;exitDy=0;exitPerimeter=0;" edge="1" parent="0HQXP3GsMQEY6zsB-aqq-10">
          <mxGeometry width="50" height="50" relative="1" as="geometry">
            <mxPoint x="214.5" y="264.17" as="sourcePoint" />
            <mxPoint x="247" y="264" as="targetPoint" />
          </mxGeometry>
        </mxCell>
        <mxCell id="0HQXP3GsMQEY6zsB-aqq-11" value="" style="swimlane;startSize=0;dashed=1;" vertex="1" parent="1">
          <mxGeometry x="566" y="7" width="947" height="501" as="geometry">
            <mxRectangle x="277" y="47" width="50" height="44" as="alternateBounds" />
          </mxGeometry>
        </mxCell>
        <mxCell id="0HQXP3GsMQEY6zsB-aqq-20" value="" style="endArrow=none;dashed=1;html=1;rounded=0;entryX=0.998;entryY=0.079;entryDx=0;entryDy=0;entryPerimeter=0;" edge="1" parent="0HQXP3GsMQEY6zsB-aqq-11" target="0HQXP3GsMQEY6zsB-aqq-11">
          <mxGeometry width="50" height="50" relative="1" as="geometry">
            <mxPoint x="2" y="40" as="sourcePoint" />
            <mxPoint x="255" y="109.58367626886138" as="targetPoint" />
          </mxGeometry>
        </mxCell>
        <mxCell id="0HQXP3GsMQEY6zsB-aqq-21" value="&lt;font style=&quot;font-size: 18px;&quot;&gt;&lt;b&gt;Back-end&lt;/b&gt;&lt;/font&gt;" style="text;html=1;align=center;verticalAlign=middle;whiteSpace=wrap;rounded=0;" vertex="1" parent="0HQXP3GsMQEY6zsB-aqq-11">
          <mxGeometry x="423.5" y="4" width="105" height="30" as="geometry" />
        </mxCell>
        <mxCell id="0HQXP3GsMQEY6zsB-aqq-28" value="" style="rounded=0;whiteSpace=wrap;html=1;" vertex="1" parent="0HQXP3GsMQEY6zsB-aqq-11">
          <mxGeometry x="45" y="74" width="887" height="401" as="geometry" />
        </mxCell>
        <mxCell id="0HQXP3GsMQEY6zsB-aqq-27" value="" style="rounded=0;whiteSpace=wrap;html=1;" vertex="1" parent="0HQXP3GsMQEY6zsB-aqq-11">
          <mxGeometry x="30" y="64" width="891" height="400" as="geometry" />
        </mxCell>
        <mxCell id="0HQXP3GsMQEY6zsB-aqq-26" value="" style="rounded=0;whiteSpace=wrap;html=1;" vertex="1" parent="0HQXP3GsMQEY6zsB-aqq-11">
          <mxGeometry x="20" y="54" width="888" height="400" as="geometry" />
        </mxCell>
        <mxCell id="0HQXP3GsMQEY6zsB-aqq-31" value="" style="rounded=0;whiteSpace=wrap;html=1;" vertex="1" parent="0HQXP3GsMQEY6zsB-aqq-11">
          <mxGeometry x="34" y="77" width="268" height="335" as="geometry" />
        </mxCell>
        <mxCell id="0HQXP3GsMQEY6zsB-aqq-24" value="&lt;b&gt;&lt;font style=&quot;font-size: 18px;&quot;&gt;UI&lt;/font&gt;&lt;/b&gt;" style="rounded=0;whiteSpace=wrap;html=1;" vertex="1" parent="0HQXP3GsMQEY6zsB-aqq-11">
          <mxGeometry x="104" y="129" width="176" height="60" as="geometry" />
        </mxCell>
        <mxCell id="0HQXP3GsMQEY6zsB-aqq-29" value="&lt;b&gt;&lt;font style=&quot;font-size: 18px;&quot;&gt;Bussines Logic&lt;/font&gt;&lt;/b&gt;" style="rounded=0;whiteSpace=wrap;html=1;" vertex="1" parent="0HQXP3GsMQEY6zsB-aqq-11">
          <mxGeometry x="104" y="220.5" width="178" height="60" as="geometry" />
        </mxCell>
        <mxCell id="0HQXP3GsMQEY6zsB-aqq-30" value="&lt;b&gt;&lt;font style=&quot;font-size: 18px;&quot;&gt;Data Access&lt;/font&gt;&lt;/b&gt;" style="rounded=0;whiteSpace=wrap;html=1;" vertex="1" parent="0HQXP3GsMQEY6zsB-aqq-11">
          <mxGeometry x="104" y="310" width="178" height="60" as="geometry" />
        </mxCell>
        <mxCell id="0HQXP3GsMQEY6zsB-aqq-23" value="&lt;b&gt;&lt;font style=&quot;font-size: 18px;&quot;&gt;listing products&lt;/font&gt;&lt;/b&gt;" style="rounded=1;whiteSpace=wrap;html=1;arcSize=1;rotation=90;" vertex="1" parent="0HQXP3GsMQEY6zsB-aqq-11">
          <mxGeometry x="-72.87" y="212.13" width="301" height="64.75" as="geometry" />
        </mxCell>
        <mxCell id="0HQXP3GsMQEY6zsB-aqq-34" value="" style="rounded=0;whiteSpace=wrap;html=1;" vertex="1" parent="0HQXP3GsMQEY6zsB-aqq-11">
          <mxGeometry x="325" y="77" width="268" height="335" as="geometry" />
        </mxCell>
        <mxCell id="0HQXP3GsMQEY6zsB-aqq-35" value="" style="rounded=0;whiteSpace=wrap;html=1;" vertex="1" parent="0HQXP3GsMQEY6zsB-aqq-11">
          <mxGeometry x="621" y="77" width="268" height="335" as="geometry" />
        </mxCell>
        <mxCell id="0HQXP3GsMQEY6zsB-aqq-38" value="&lt;b&gt;&lt;font style=&quot;font-size: 18px;&quot;&gt;UI&lt;/font&gt;&lt;/b&gt;" style="rounded=0;whiteSpace=wrap;html=1;" vertex="1" parent="0HQXP3GsMQEY6zsB-aqq-11">
          <mxGeometry x="387.5" y="129" width="176" height="60" as="geometry" />
        </mxCell>
        <mxCell id="0HQXP3GsMQEY6zsB-aqq-39" value="&lt;b&gt;&lt;font style=&quot;font-size: 18px;&quot;&gt;Bussines Logic&lt;/font&gt;&lt;/b&gt;" style="rounded=0;whiteSpace=wrap;html=1;" vertex="1" parent="0HQXP3GsMQEY6zsB-aqq-11">
          <mxGeometry x="387.5" y="220.5" width="178" height="60" as="geometry" />
        </mxCell>
        <mxCell id="0HQXP3GsMQEY6zsB-aqq-40" value="&lt;b&gt;&lt;font style=&quot;font-size: 18px;&quot;&gt;Data Access&lt;/font&gt;&lt;/b&gt;" style="rounded=0;whiteSpace=wrap;html=1;" vertex="1" parent="0HQXP3GsMQEY6zsB-aqq-11">
          <mxGeometry x="387.5" y="310" width="178" height="60" as="geometry" />
        </mxCell>
        <mxCell id="0HQXP3GsMQEY6zsB-aqq-36" value="&lt;b&gt;&lt;font style=&quot;font-size: 18px;&quot;&gt;add to basket&lt;/font&gt;&lt;/b&gt;" style="rounded=1;whiteSpace=wrap;html=1;arcSize=1;rotation=90;" vertex="1" parent="0HQXP3GsMQEY6zsB-aqq-11">
          <mxGeometry x="220" y="212.13" width="301" height="64.75" as="geometry" />
        </mxCell>
        <mxCell id="0HQXP3GsMQEY6zsB-aqq-37" value="&lt;b&gt;&lt;font style=&quot;font-size: 18px;&quot;&gt;checkout order&lt;/font&gt;&lt;/b&gt;" style="rounded=1;whiteSpace=wrap;html=1;arcSize=1;rotation=90;" vertex="1" parent="0HQXP3GsMQEY6zsB-aqq-11">
          <mxGeometry x="518" y="212.13" width="301" height="64.75" as="geometry" />
        </mxCell>
        <mxCell id="0HQXP3GsMQEY6zsB-aqq-44" value="" style="ellipse;whiteSpace=wrap;html=1;aspect=fixed;" vertex="1" parent="0HQXP3GsMQEY6zsB-aqq-11">
          <mxGeometry x="680" y="158" width="173" height="173" as="geometry" />
        </mxCell>
        <mxCell id="0HQXP3GsMQEY6zsB-aqq-45" value="" style="ellipse;whiteSpace=wrap;html=1;aspect=fixed;" vertex="1" parent="0HQXP3GsMQEY6zsB-aqq-11">
          <mxGeometry x="694" y="172.01" width="145" height="145" as="geometry" />
        </mxCell>
        <mxCell id="0HQXP3GsMQEY6zsB-aqq-46" value="&lt;font style=&quot;font-size: 18px;&quot;&gt;&lt;b&gt;Clean&amp;nbsp;&lt;/b&gt;&lt;/font&gt;&lt;div&gt;&lt;font style=&quot;font-size: 18px;&quot;&gt;&lt;b&gt;Architecture&lt;/b&gt;&lt;/font&gt;&lt;/div&gt;" style="ellipse;whiteSpace=wrap;html=1;aspect=fixed;" vertex="1" parent="0HQXP3GsMQEY6zsB-aqq-11">
          <mxGeometry x="710.51" y="188.51999999999998" width="111.99" height="111.99" as="geometry" />
        </mxCell>
        <mxCell id="0HQXP3GsMQEY6zsB-aqq-52" value="" style="endArrow=classic;html=1;rounded=0;entryX=0;entryY=0.5;entryDx=0;entryDy=0;entryPerimeter=0;" edge="1" parent="0HQXP3GsMQEY6zsB-aqq-11" target="0HQXP3GsMQEY6zsB-aqq-47">
          <mxGeometry width="50" height="50" relative="1" as="geometry">
            <mxPoint x="902" y="251" as="sourcePoint" />
            <mxPoint x="939" y="251" as="targetPoint" />
          </mxGeometry>
        </mxCell>
        <mxCell id="0HQXP3GsMQEY6zsB-aqq-17" value="" style="endArrow=classic;html=1;rounded=0;exitX=0.985;exitY=0.479;exitDx=0;exitDy=0;exitPerimeter=0;" edge="1" parent="1" source="0HQXP3GsMQEY6zsB-aqq-4">
          <mxGeometry width="50" height="50" relative="1" as="geometry">
            <mxPoint x="745" y="351" as="sourcePoint" />
            <mxPoint x="355" y="271" as="targetPoint" />
          </mxGeometry>
        </mxCell>
        <mxCell id="0HQXP3GsMQEY6zsB-aqq-19" value="" style="endArrow=none;dashed=1;html=1;rounded=0;exitX=-0.004;exitY=0.079;exitDx=0;exitDy=0;exitPerimeter=0;entryX=1.006;entryY=0.079;entryDx=0;entryDy=0;entryPerimeter=0;" edge="1" parent="1" source="0HQXP3GsMQEY6zsB-aqq-10" target="0HQXP3GsMQEY6zsB-aqq-10">
          <mxGeometry width="50" height="50" relative="1" as="geometry">
            <mxPoint x="745" y="351" as="sourcePoint" />
            <mxPoint x="795" y="301" as="targetPoint" />
          </mxGeometry>
        </mxCell>
        <mxCell id="0HQXP3GsMQEY6zsB-aqq-47" value="&lt;font style=&quot;font-size: 18px;&quot;&gt;&lt;b&gt;RDBMS&lt;/b&gt;&lt;/font&gt;" style="shape=cylinder3;whiteSpace=wrap;html=1;boundedLbl=1;backgroundOutline=1;size=41.000000000000085;" vertex="1" parent="1">
          <mxGeometry x="1530" y="150" width="163" height="215" as="geometry" />
        </mxCell>
        <mxCell id="0HQXP3GsMQEY6zsB-aqq-50" value="&lt;b&gt;Product&lt;/b&gt;&lt;div&gt;&lt;b&gt;Schema&lt;/b&gt;&lt;/div&gt;" style="shape=cylinder3;whiteSpace=wrap;html=1;boundedLbl=1;backgroundOutline=1;size=15;" vertex="1" parent="1">
          <mxGeometry x="1530" y="311" width="65" height="80" as="geometry" />
        </mxCell>
        <mxCell id="0HQXP3GsMQEY6zsB-aqq-51" value="&lt;b&gt;Order&lt;/b&gt;&lt;div&gt;&lt;b&gt;Schema&lt;/b&gt;&lt;/div&gt;" style="shape=cylinder3;whiteSpace=wrap;html=1;boundedLbl=1;backgroundOutline=1;size=15;" vertex="1" parent="1">
          <mxGeometry x="1626" y="311" width="67" height="80" as="geometry" />
        </mxCell>
      </root>
    </mxGraphModel>
  </diagram>
</mxfile>
